<svg width="1280" height="832" viewBox="0 0 1280 832" fill="none" xmlns="http://www.w3.org/2000/svg">
<g opacity="0.7" clip-path="url(#clip0_458_498)">
<g opacity="0.5">
<g opacity="0.85" filter="url(#filter0_f_458_498)">
<rect x="991.625" y="472.42" width="802.571" height="601.52" transform="rotate(179.725 991.625 472.42)" fill="#4BDEB4"/>
</g>
<g filter="url(#filter1_f_458_498)">
<rect x="1119.95" y="766.249" width="391.615" height="249.11" transform="rotate(179.725 1119.95 766.249)" fill="#8100FF"/>
</g>
<g filter="url(#filter2_f_458_498)">
<path d="M727.738 643.574L456.471 350.864L996.185 348.276L727.738 643.574Z" fill="#C600FF"/>
</g>
<g filter="url(#filter3_f_458_498)">
<path d="M374.929 833.548L302.544 712.893L128.653 699.292L257.67 609.454L221.423 479.704L373.544 544.837L525.033 478.248L490.032 608.34L619.905 696.936L446.152 712.205L374.929 833.548Z" fill="#4700FF"/>
</g>
<g opacity="0.6" filter="url(#filter4_f_458_498)">
<ellipse cx="590.937" cy="597.892" rx="301.187" ry="149.756" transform="rotate(179.725 590.937 597.892)" fill="#00DDFF"/>
</g>
<g filter="url(#filter5_f_458_498)">
<path d="M242.988 330.533L462.392 545.828L30.3374 550.414L242.988 330.533Z" fill="#AD48FF"/>
</g>
<g filter="url(#filter6_f_458_498)">
<ellipse cx="807.222" cy="784.052" rx="432.566" ry="187.195" transform="rotate(179.725 807.222 784.052)" fill="#4BDEB4"/>
</g>
<g filter="url(#filter7_f_458_498)">
<path d="M847.086 710.23L726.705 530.528L437.278 510.409L652.099 376.453L591.875 183.171L845.023 280.083L1097.23 180.748L1038.86 374.599L1254.96 506.488L965.738 529.382L847.086 710.23Z" fill="#00DDFF"/>
</g>
<g filter="url(#filter8_f_458_498)">
<path d="M290.647 599.332L189.758 442.65L-52.738 425.063L127.226 308.316L76.7362 139.804L288.849 224.333L500.141 137.774L451.27 306.762L632.345 421.777L390.029 441.69L290.647 599.332Z" fill="#4BDEB4"/>
</g>
<g filter="url(#filter9_f_458_498)">
<path d="M466.718 972.882L347.016 779.31L59.3859 757.528L272.814 613.354L212.889 405.18L464.496 509.648L715.091 402.771L657.165 611.51L871.966 753.631L584.558 778.171L466.718 972.882Z" fill="#0055FF"/>
</g>
</g>
</g>
<defs>
<filter id="filter0_f_458_498" x="-213.821" y="-529.092" width="1605.45" height="1405.36" filterUnits="userSpaceOnUse" color-interpolation-filters="sRGB">
<feFlood flood-opacity="0" result="BackgroundImageFix"/>
<feBlend mode="normal" in="SourceGraphic" in2="BackgroundImageFix" result="shape"/>
<feGaussianBlur stdDeviation="200" result="effect1_foregroundBlur_458_498"/>
</filter>
<filter id="filter1_f_458_498" x="396.746" y="186.748" width="1053.59" height="911.774" filterUnits="userSpaceOnUse" color-interpolation-filters="sRGB">
<feFlood flood-opacity="0" result="BackgroundImageFix"/>
<feBlend mode="normal" in="SourceGraphic" in2="BackgroundImageFix" result="shape"/>
<feGaussianBlur stdDeviation="165.197" result="effect1_foregroundBlur_458_498"/>
</filter>
<filter id="filter2_f_458_498" x="126.076" y="17.8811" width="1200.5" height="956.087" filterUnits="userSpaceOnUse" color-interpolation-filters="sRGB">
<feFlood flood-opacity="0" result="BackgroundImageFix"/>
<feBlend mode="normal" in="SourceGraphic" in2="BackgroundImageFix" result="shape"/>
<feGaussianBlur stdDeviation="165.197" result="effect1_foregroundBlur_458_498"/>
</filter>
<filter id="filter3_f_458_498" x="-201.741" y="147.854" width="1152.04" height="1016.09" filterUnits="userSpaceOnUse" color-interpolation-filters="sRGB">
<feFlood flood-opacity="0" result="BackgroundImageFix"/>
<feBlend mode="normal" in="SourceGraphic" in2="BackgroundImageFix" result="shape"/>
<feGaussianBlur stdDeviation="165.197" result="effect1_foregroundBlur_458_498"/>
</filter>
<filter id="filter4_f_458_498" x="-40.6422" y="117.736" width="1263.16" height="960.311" filterUnits="userSpaceOnUse" color-interpolation-filters="sRGB">
<feFlood flood-opacity="0" result="BackgroundImageFix"/>
<feBlend mode="normal" in="SourceGraphic" in2="BackgroundImageFix" result="shape"/>
<feGaussianBlur stdDeviation="165.197" result="effect1_foregroundBlur_458_498"/>
</filter>
<filter id="filter5_f_458_498" x="-300.057" y="0.138489" width="1092.84" height="880.67" filterUnits="userSpaceOnUse" color-interpolation-filters="sRGB">
<feFlood flood-opacity="0" result="BackgroundImageFix"/>
<feBlend mode="normal" in="SourceGraphic" in2="BackgroundImageFix" result="shape"/>
<feGaussianBlur stdDeviation="165.197" result="effect1_foregroundBlur_458_498"/>
</filter>
<filter id="filter6_f_458_498" x="124.66" y="346.848" width="1365.12" height="874.409" filterUnits="userSpaceOnUse" color-interpolation-filters="sRGB">
<feFlood flood-opacity="0" result="BackgroundImageFix"/>
<feBlend mode="normal" in="SourceGraphic" in2="BackgroundImageFix" result="shape"/>
<feGaussianBlur stdDeviation="125" result="effect1_foregroundBlur_458_498"/>
</filter>
<filter id="filter7_f_458_498" x="107.278" y="-149.252" width="1477.68" height="1189.48" filterUnits="userSpaceOnUse" color-interpolation-filters="sRGB">
<feFlood flood-opacity="0" result="BackgroundImageFix"/>
<feBlend mode="normal" in="SourceGraphic" in2="BackgroundImageFix" result="shape"/>
<feGaussianBlur stdDeviation="165" result="effect1_foregroundBlur_458_498"/>
</filter>
<filter id="filter8_f_458_498" x="-332.738" y="-142.226" width="1245.08" height="1021.56" filterUnits="userSpaceOnUse" color-interpolation-filters="sRGB">
<feFlood flood-opacity="0" result="BackgroundImageFix"/>
<feBlend mode="normal" in="SourceGraphic" in2="BackgroundImageFix" result="shape"/>
<feGaussianBlur stdDeviation="140" result="effect1_foregroundBlur_458_498"/>
</filter>
<filter id="filter9_f_458_498" x="-220.614" y="122.771" width="1372.58" height="1130.11" filterUnits="userSpaceOnUse" color-interpolation-filters="sRGB">
<feFlood flood-opacity="0" result="BackgroundImageFix"/>
<feBlend mode="normal" in="SourceGraphic" in2="BackgroundImageFix" result="shape"/>
<feGaussianBlur stdDeviation="140" result="effect1_foregroundBlur_458_498"/>
</filter>
<clipPath id="clip0_458_498">
<rect width="1365" height="884" fill="white" transform="translate(0 -51)"/>
</clipPath>
</defs>
</svg>
