<svg width="1365" height="884" viewBox="0 0 1365 884" fill="none" xmlns="http://www.w3.org/2000/svg">
<g opacity="0.3" clip-path="url(#clip0_1000_182)">
<g opacity="0.5">
<g opacity="0.85" filter="url(#filter0_f_1000_182)">
<rect x="991.626" y="523.42" width="802.571" height="601.52" transform="rotate(179.725 991.626 523.42)" fill="#4BDEB4"/>
</g>
<g filter="url(#filter1_f_1000_182)">
<rect x="1119.95" y="817.249" width="391.615" height="249.11" transform="rotate(179.725 1119.95 817.249)" fill="#8100FF"/>
</g>
<g filter="url(#filter2_f_1000_182)">
<path d="M727.738 694.574L456.471 401.864L996.185 399.276L727.738 694.574Z" fill="#C600FF"/>
</g>
<g filter="url(#filter3_f_1000_182)">
<path d="M374.929 884.548L302.545 763.893L128.653 750.292L257.67 660.454L221.423 530.704L373.544 595.836L525.034 529.248L490.033 659.34L619.905 747.936L446.152 763.205L374.929 884.548Z" fill="#4700FF"/>
</g>
<g opacity="0.6" filter="url(#filter4_f_1000_182)">
<ellipse cx="590.937" cy="648.892" rx="301.187" ry="149.756" transform="rotate(179.725 590.937 648.892)" fill="#00DDFF"/>
</g>
<g filter="url(#filter5_f_1000_182)">
<path d="M242.988 381.533L462.392 596.828L30.3372 601.414L242.988 381.533Z" fill="#AD48FF"/>
</g>
<g filter="url(#filter6_f_1000_182)">
<ellipse cx="807.222" cy="835.052" rx="432.566" ry="187.195" transform="rotate(179.725 807.222 835.052)" fill="#4BDEB4"/>
</g>
<g filter="url(#filter7_f_1000_182)">
<path d="M847.086 761.23L726.705 581.528L437.278 561.409L652.099 427.453L591.875 234.171L845.023 331.083L1097.23 231.748L1038.86 425.599L1254.96 557.488L965.738 580.382L847.086 761.23Z" fill="#00DDFF"/>
</g>
<g filter="url(#filter8_f_1000_182)">
<path d="M290.647 650.332L189.758 493.65L-52.7385 476.063L127.225 359.316L76.7357 190.804L288.848 275.333L500.14 188.774L451.27 357.762L632.345 472.778L390.028 492.69L290.647 650.332Z" fill="#4BDEB4"/>
</g>
<g filter="url(#filter9_f_1000_182)">
<path d="M466.718 1023.88L347.016 830.31L59.3861 808.528L272.814 664.354L212.889 456.18L464.497 560.648L715.091 453.772L657.165 662.51L871.966 804.631L584.558 829.171L466.718 1023.88Z" fill="#0055FF"/>
</g>
</g>
</g>
<defs>
<filter id="filter0_f_1000_182" x="-213.82" y="-478.092" width="1605.45" height="1405.36" filterUnits="userSpaceOnUse" color-interpolation-filters="sRGB">
<feFlood flood-opacity="0" result="BackgroundImageFix"/>
<feBlend mode="normal" in="SourceGraphic" in2="BackgroundImageFix" result="shape"/>
<feGaussianBlur stdDeviation="200" result="effect1_foregroundBlur_1000_182"/>
</filter>
<filter id="filter1_f_1000_182" x="396.745" y="237.748" width="1053.59" height="911.774" filterUnits="userSpaceOnUse" color-interpolation-filters="sRGB">
<feFlood flood-opacity="0" result="BackgroundImageFix"/>
<feBlend mode="normal" in="SourceGraphic" in2="BackgroundImageFix" result="shape"/>
<feGaussianBlur stdDeviation="165.197" result="effect1_foregroundBlur_1000_182"/>
</filter>
<filter id="filter2_f_1000_182" x="126.076" y="68.8812" width="1200.5" height="956.087" filterUnits="userSpaceOnUse" color-interpolation-filters="sRGB">
<feFlood flood-opacity="0" result="BackgroundImageFix"/>
<feBlend mode="normal" in="SourceGraphic" in2="BackgroundImageFix" result="shape"/>
<feGaussianBlur stdDeviation="165.197" result="effect1_foregroundBlur_1000_182"/>
</filter>
<filter id="filter3_f_1000_182" x="-201.741" y="198.854" width="1152.04" height="1016.09" filterUnits="userSpaceOnUse" color-interpolation-filters="sRGB">
<feFlood flood-opacity="0" result="BackgroundImageFix"/>
<feBlend mode="normal" in="SourceGraphic" in2="BackgroundImageFix" result="shape"/>
<feGaussianBlur stdDeviation="165.197" result="effect1_foregroundBlur_1000_182"/>
</filter>
<filter id="filter4_f_1000_182" x="-40.6425" y="168.736" width="1263.16" height="960.312" filterUnits="userSpaceOnUse" color-interpolation-filters="sRGB">
<feFlood flood-opacity="0" result="BackgroundImageFix"/>
<feBlend mode="normal" in="SourceGraphic" in2="BackgroundImageFix" result="shape"/>
<feGaussianBlur stdDeviation="165.197" result="effect1_foregroundBlur_1000_182"/>
</filter>
<filter id="filter5_f_1000_182" x="-300.058" y="51.1385" width="1092.84" height="880.67" filterUnits="userSpaceOnUse" color-interpolation-filters="sRGB">
<feFlood flood-opacity="0" result="BackgroundImageFix"/>
<feBlend mode="normal" in="SourceGraphic" in2="BackgroundImageFix" result="shape"/>
<feGaussianBlur stdDeviation="165.197" result="effect1_foregroundBlur_1000_182"/>
</filter>
<filter id="filter6_f_1000_182" x="124.66" y="397.848" width="1365.12" height="874.409" filterUnits="userSpaceOnUse" color-interpolation-filters="sRGB">
<feFlood flood-opacity="0" result="BackgroundImageFix"/>
<feBlend mode="normal" in="SourceGraphic" in2="BackgroundImageFix" result="shape"/>
<feGaussianBlur stdDeviation="125" result="effect1_foregroundBlur_1000_182"/>
</filter>
<filter id="filter7_f_1000_182" x="107.278" y="-98.2522" width="1477.68" height="1189.48" filterUnits="userSpaceOnUse" color-interpolation-filters="sRGB">
<feFlood flood-opacity="0" result="BackgroundImageFix"/>
<feBlend mode="normal" in="SourceGraphic" in2="BackgroundImageFix" result="shape"/>
<feGaussianBlur stdDeviation="165" result="effect1_foregroundBlur_1000_182"/>
</filter>
<filter id="filter8_f_1000_182" x="-332.738" y="-91.2263" width="1245.08" height="1021.56" filterUnits="userSpaceOnUse" color-interpolation-filters="sRGB">
<feFlood flood-opacity="0" result="BackgroundImageFix"/>
<feBlend mode="normal" in="SourceGraphic" in2="BackgroundImageFix" result="shape"/>
<feGaussianBlur stdDeviation="140" result="effect1_foregroundBlur_1000_182"/>
</filter>
<filter id="filter9_f_1000_182" x="-220.614" y="173.771" width="1372.58" height="1130.11" filterUnits="userSpaceOnUse" color-interpolation-filters="sRGB">
<feFlood flood-opacity="0" result="BackgroundImageFix"/>
<feBlend mode="normal" in="SourceGraphic" in2="BackgroundImageFix" result="shape"/>
<feGaussianBlur stdDeviation="140" result="effect1_foregroundBlur_1000_182"/>
</filter>
<clipPath id="clip0_1000_182">
<rect width="1365" height="884" fill="white"/>
</clipPath>
</defs>
</svg>
